<svg preserveAspectRatio="none" overflow="visible" style="display: block;" width="64" height="64" viewBox="0 0 64 64" fill="none" xmlns="http://www.w3.org/2000/svg">
<g id="Frame">
<path id="Vector" d="M14 52V10C14 7.33333 15.3333 6 18 6H38.6667L50.6667 18V48C50.6667 50.6667 49.3333 52 46.6667 52H14Z" stroke="#273232" stroke-width="2.66667" stroke-linejoin="round"/>
<path id="Vector_2" d="M38 6.66667V18.6667H50M21.3333 26.6667H40M21.3333 34.6667H34.6667M21.3333 42.6667H28.6667" stroke="#273232" stroke-width="2.66667" stroke-linecap="round" stroke-linejoin="round"/>
<path id="Vector_3" d="M48.6667 62C56.7668 62 63.3333 55.4335 63.3333 47.3333C63.3333 39.2332 56.7668 32.6667 48.6667 32.6667C40.5665 32.6667 34 39.2332 34 47.3333C34 55.4335 40.5665 62 48.6667 62Z" fill="#E3F6F0"/>
<path id="Vector_4" d="M48.6667 54.6667V40M54 45.3333L48.6667 40L43.3333 45.3333" stroke="#006D67" stroke-width="2.53333" stroke-linecap="round" stroke-linejoin="round"/>
</g>
</svg>
